HIERARCHY
ROOT Hips
{
	OFFSET	0	0	0
	CHANNELS 6  Xposition Yposition Zposition Xrotation Yrotation Zrotation
	JOINT Spine
	{
		OFFSET	0	7.0817	1.42564
		CHANNELS 3  Xrotation Yrotation Zrotation
		JOINT Spine1
		{
			OFFSET	0	12.1578	-2.17103
			CHANNELS 3  Xrotation Yrotation Zrotation
			JOINT Spine2
			{
				OFFSET	0	9.21601	0.987817
				CHANNELS 3  Xrotation Yrotation Zrotation
				JOINT Spine3
				{
					OFFSET	0	11.0288	3.27825
					CHANNELS 3  Xrotation Yrotation Zrotation
					JOINT Spine4
					{
						OFFSET	0	16.3261	-1.67169
						CHANNELS 3  Xrotation Yrotation Zrotation
						JOINT Neck
						{
							OFFSET	0	7.79399	-5.46013
							CHANNELS 3  Xrotation Yrotation Zrotation
							JOINT Head
							{
								OFFSET	0	9.35713	-2.80063
								CHANNELS 3  Xrotation Yrotation Zrotation
								End Site
								{
									OFFSET	0	19.5175	-0.944397
								}
							}
						}
					}
					JOINT LeftShoulder
					{
						OFFSET	-4.68942	19.8432	-9.35713
						CHANNELS 3  Xrotation Yrotation Zrotation
						JOINT LeftArm
						{
							OFFSET	-10.2519	-2.80063	3.59307
							CHANNELS 3  Xrotation Yrotation Zrotation
							JOINT LeftForeArm
							{
								OFFSET	-34.1249	-1.55752	2.4358
								CHANNELS 3  Xrotation Yrotation Zrotation
								JOINT LeftHand
								{
									OFFSET	-28.1809	-1.94746	2.01152
									CHANNELS 3  Xrotation Yrotation Zrotation
									End Site
									{
										OFFSET	-10.2846	-0.710727	0.734058
									}
								}
							}
						}
					}
					JOINT RightShoulder
					{
						OFFSET	4.68942	19.8432	-9.35713
						CHANNELS 3  Xrotation Yrotation Zrotation
						JOINT RightArm
						{
							OFFSET	10.2519	-2.80063	3.59307
							CHANNELS 3  Xrotation Yrotation Zrotation
							JOINT RightForeArm
							{
								OFFSET	34.1249	-1.55752	2.4358
								CHANNELS 3  Xrotation Yrotation Zrotation
								JOINT RightHand
								{
									OFFSET	28.1809	-1.94746	2.01152
									CHANNELS 3  Xrotation Yrotation Zrotation
									End Site
									{
										OFFSET	10.2846	-0.710727	0.734058
									}
								}
							}
						}
					}
				}
			}
		}
	}
	JOINT LeftUpLeg
	{
		OFFSET	-9.64475	-3.54085	-0.712821
		CHANNELS 3  Xrotation Yrotation Zrotation
		JOINT LeftLeg
		{
			OFFSET	-2.14734	-42.0762	-0.657743
			CHANNELS 3  Xrotation Yrotation Zrotation
			JOINT LeftFoot
			{
				OFFSET	-2.09898	-38.6909	3.32741
				CHANNELS 3  Xrotation Yrotation Zrotation
				JOINT LeftToeBase
				{
					OFFSET	0	-4.81787	-12.7963
					CHANNELS 3  Xrotation Yrotation Zrotation
					End Site
					{
						OFFSET	0	-1.92715	-7.70859
					}
				}
			}
		}
	}
	JOINT RightUpLeg
	{
		OFFSET	9.64475	-3.54085	-0.712821
		CHANNELS 3  Xrotation Yrotation Zrotation
		JOINT RightLeg
		{
			OFFSET	2.14734	-42.0762	-0.657743
			CHANNELS 3  Xrotation Yrotation Zrotation
			JOINT RightFoot
			{
				OFFSET	2.09898	-38.6909	3.32741
				CHANNELS 3  Xrotation Yrotation Zrotation
				JOINT RightToeBase
				{
					OFFSET	0	-4.81787	-12.7963
					CHANNELS 3  Xrotation Yrotation Zrotation
					End Site
					{
						OFFSET	0	-1.92715	-7.70859
					}
				}
			}
		}
	}
}
MOTION
Frames: 9
Frame Time: 0.020408
 0 -10.1657 2.85827 -0 0 -0 -0 0 -0 -0 0 -0 -0 0 -0 -0 0 -0 -0 0 -0 -0 0 -0 -0 0 -0 -0 0 -0 -0 0 -0 -0 0 -0 -0 0 -0 -0 0 -0 -0 0 -0 -0 0 -0 -0 0 -0 -0 0 -0 -0 0 -0 -0 0 -0 -0 0 -0 -0 0 -0 -0 0 -0 -0 0 -0 -0 0 -0
 291.484 56.5433 33.0057 79.505 14.7099 8.96267 0.0193517 0.220496 -5.01569 159.946 179.562 171.64 160.336 178.686 171.638 167.391 179.779 174.984 171.468 179.752 178.347 175.034 -172.167 -174.725 178.344 -161.26 179.774 1.79712 -28.1565 3.90539 167.473 172.905 -156.856 111.793 -27.7022 127.974 -0 57.5312 29.7941 172.603 172.435 -164.656 29.6014 50.3944 -42.7514 86.6986 3.94915 -32.7377 -0 -50.214 8.04678 12.7051 15.6906 -15.8794 151.021 169.91 174.421 151.72 -177.207 145.24 142.524 180 -180 13.6163 -15.4427 -5.24193 124.374 -153.216 -176.787 156.51 178.066 -167.722 155.808 180 -180
 291.406 56.5555 32.9704 79.5231 15.6484 8.85656 0.0136686 0.153078 -5.1025 159.951 179.696 171.496 160.28 179.088 171.495 167.332 179.847 174.898 171.637 179.753 178.317 175.508 -172.054 -174.757 178.488 -161.069 179.777 1.76329 -28.4081 3.83152 167.573 172.967 -156.926 111.727 -27.5567 127.884 -0 57.3581 29.7911 172.466 172.369 -164.355 29.5066 49.8832 -42.633 87.1304 3.75344 -32.8434 -0 -50.5717 7.76547 12.9468 16.1589 -16.973 151.175 169.767 177.108 151.7 -179.15 140.727 145.132 180 -180 13.4084 -15.056 -4.90414 124.275 -152.574 -178.018 155.834 178.997 -167.263 157.307 180 -180
 291.183 56.7825 32.8342 79.665 14.1686 9.03433 0.0176218 0.202185 -4.98114 159.938 179.598 171.698 160.299 178.795 171.696 167.335 179.798 175.019 171.59 179.757 178.357 175.375 -172.31 -174.456 178.455 -161.256 179.872 1.88993 -27.5449 4.10773 167.217 173.222 -156.426 111.274 -27.6409 127.642 -0 57.2498 29.8653 172.598 171.868 -164.592 29.5752 49.3725 -43.0527 87.2701 3.44147 -33.0677 -0 -50.5762 7.6534 11.6644 14.3022 -15.3281 150.904 169.509 174.396 151.517 -176.704 147.889 141.68 180 -180 13.3258 -14.0303 -5.41392 124.338 -153.337 -177.177 156.652 177.727 -169.212 155.054 180 -180
 291.374 56.5171 33.1689 79.2255 14.5557 8.99043 0.0133695 0.153011 -4.99359 159.951 179.696 171.677 160.285 179.088 171.676 167.352 179.847 175.006 171.594 179.757 178.353 175.333 -172.572 -173.795 178.45 -161.126 -179.955 1.8773 -27.7041 4.08017 167.461 173.172 -157.141 111.221 -27.6633 127.292 -0 57.2857 29.7741 172.547 171.445 -164.444 29.4343 48.9474 -42.7659 87.3568 3.361 -33.0784 -0 -50.1276 7.67723 12.135 14.5838 -15.5501 151.643 169.445 175.312 151.004 -178.101 145.209 142.778 180 -180 13.7842 -13.8537 -5.36167 125.074 -153.079 -178.018 155.52 178.776 -167.7 155.881 180 -180
 291.782 56.6922 33.0841 79.3927 13.6636 9.84354 0.0197216 0.224829 -5.01305 159.94 179.553 171.645 160.331 178.66 171.643 167.382 179.775 174.987 171.476 179.752 178.347 175.002 -172.663 -173.135 178.348 -160.721 -179.827 1.89431 -27.5123 4.11726 167.504 172.53 -156.875 110.784 -27.7829 127.203 -0 57.2993 29.7898 172.728 170.943 -164.79 29.3661 48.6146 -43.1809 87.14 3.35031 -33.1714 -0 -49.0673 7.9752 12.9965 16.1735 -17.203 151.062 170.347 174.386 151.413 -176.271 146.922 141.823 180 -180 13.4863 -12.8269 -7.3306 125.32 -152.998 -177.436 155.605 178.627 -168.708 155.283 180 -180
 291.67 56.2086 33.4266 78.8967 14.8336 8.90357 0.01265 0.145094 -4.98273 159.985 179.712 171.695 160.295 179.135 171.695 167.32 179.855 175.017 171.733 179.761 178.356 175.697 -172.372 -172.931 178.554 -159.953 -179.794 1.79166 -28.2 3.89346 168.221 172.7 -157.595 110.766 -27.626 126.783 -0 56.9689 29.7669 172.552 170.975 -164.413 29.4294 48.3704 -42.6557 87.2501 3.41094 -33.6722 -0 -47.8824 8.11157 12.9469 15.2015 -16.8612 151.897 169.288 178.219 150.683 -179.992 141.047 145.061 180 -180 14.6002 -13.637 -5.16204 124.823 -152.478 -178.783 154.754 179.747 -166.789 157.176 180 -180
 291.409 56.5474 33.05 79.6475 13.0519 8.67657 0.0227455 0.271715 -4.78515 159.782 179.46 172.024 160.156 178.38 172.022 167.16 179.728 175.215 171.685 179.769 178.422 175.739 -172.814 -172.408 178.585 -160.25 -179.611 1.82626 -28.1445 3.96879 167.597 172.434 -157.211 110.743 -27.4233 127.041 -0 56.7349 29.7865 172.709 170.723 -164.731 29.0696 48.1004 -42.7598 87.0113 3.51761 -33.683 -0 -46.4293 8.35161 11.9037 15.0236 -14.958 150.985 169.339 174.058 151.045 -176.385 148.482 141.505 180 -180 14.2796 -12.2606 -5.76203 124.27 -153.115 -177.331 155.789 177.976 -169.254 155.028 180 -180
 291.625 56.3572 32.8531 79.2961 13.3993 8.9883 0.0160248 0.192364 -4.76199 159.858 179.618 172.063 160.155 178.853 172.062 167.123 179.808 175.238 171.94 179.777 178.428 176.378 -173.023 -172.875 178.793 -160.983 -179.633 1.77923 -27.5177 3.86682 167.09 172.121 -157.996 110.982 -26.9543 127.6 -0 56.5387 29.71 172.828 169.824 -164.914 29.3057 47.9865 -43.0167 86.9318 3.69694 -33.5027 -0 -45.2079 8.44987 13.0279 14.0118 -15.3238 149.553 169.047 173.922 151.496 -175.679 150.105 141.134 180 -180 14.8903 -12.141 -6.17735 123.557 -152.406 -177.505 156.278 177.978 -170.056 154.732 180 -180
